<svg width="20" height="20" viewBox="0 0 20 20" fill="none" xmlns="http://www.w3.org/2000/svg">
<path d="M19.2411 5.64991L18.048 5.72849L18.1194 4.52827C18.148 4.11391 17.8122 3.74957 17.3621 3.77099L16.169 3.84957L16.2405 2.64935C16.2619 2.24927 15.9476 1.87778 15.4832 1.89206L14.283 1.96351L14.3544 0.763282C14.383 0.334631 14.0258 -0.0225783 13.5971 0.00599847L11.9968 0.106017C11.8254 0.120306 11.661 0.191747 11.5325 0.313199L4.99547 6.85019L6.21714 8.07186C6.49577 8.35049 6.49577 8.80056 6.21714 9.07918C5.9385 9.35779 5.48843 9.35781 5.20982 9.07918L3.98815 7.85751L0.308834 11.5368C0.187383 11.6583 0.108797 11.8226 0.101652 11.9941L0.0016337 13.5944C-0.0269431 14.023 0.323111 14.3731 0.758918 14.3516L1.95201 14.2802L1.88057 15.4733C1.85199 15.8876 2.19491 16.252 2.63785 16.2306L3.83094 16.1591L3.7595 17.3522C3.73092 17.7666 4.07384 18.1381 4.51678 18.1095L5.71701 18.0381L5.64557 19.2383C5.61699 19.6455 5.94562 19.9956 6.35999 19.9956H6.40285L8.00315 19.8955C8.17461 19.8813 8.33894 19.8098 8.46751 19.6884L12.1468 16.0091L10.9252 14.7874C10.6465 14.5087 10.6465 14.0587 10.9252 13.7801C11.2038 13.5015 11.6539 13.5014 11.9325 13.7801L13.1541 15.0017L19.6911 8.46474C19.8126 8.34329 19.8912 8.17897 19.8983 8.00751L19.9983 6.40721C20.0269 5.9857 19.684 5.62849 19.2411 5.64991ZM9.78923 12.6583C9.5106 12.9369 9.06052 12.9369 8.78191 12.6583L7.35307 11.2295C7.07444 10.9508 7.07444 10.5008 7.35307 10.2221C7.63171 9.94353 8.08178 9.94351 8.36039 10.2221L9.78923 11.651C10.0679 11.9296 10.0679 12.3797 9.78923 12.6583Z" fill="white"/>
</svg>
