<svg width="20" height="24" viewBox="0 0 20 24" fill="none" xmlns="http://www.w3.org/2000/svg">
<path d="M10.1939 9.52052C12.818 9.52052 14.9541 7.38453 14.9541 4.76026C14.9541 2.1361 12.8181 0 10.1939 0C7.56959 0 5.43359 2.13599 5.43359 4.76026C5.43359 7.38442 7.56959 9.52052 10.1939 9.52052Z" fill="white"/>
<path d="M19.2773 17.2584C19.2773 12 16 11 13.1073 11C13.1073 11 11.7581 11 10.0001 11C8.24252 11 6.50006 11 6.50006 11C3.5 11 1 12 1 17.2584C1 21 3.77393 20.0033 6.14452 20.0163C5.90737 19.7101 5.82878 19.3454 5.93792 19.009C6.06547 18.6156 6.42248 18.3397 6.89352 18.2711L8.35142 18.0594L9.00365 16.7379C9.21422 16.3119 9.58662 16.0572 10.0003 16.0572C10.4135 16.0572 10.7861 16.3119 10.9972 16.7389L11.6489 18.0594L13.1073 18.2711C13.5776 18.3397 13.9347 18.6158 14.0622 19.0094C14.1713 19.3457 14.0928 19.7106 13.8554 20.0163C16.2255 20.003 19.5001 21 19.2773 17.2584Z" fill="white"/>
<path d="M11.6727 23.1192C11.7595 23.1646 11.838 23.1863 11.9052 23.1863C12.0822 23.1863 12.1799 23.0371 12.1365 22.7834C12.1365 22.7834 12.1365 22.7822 12.1365 22.7817L11.8171 20.9202L12.2811 20.4678L13.17 19.6013C13.4251 19.3532 13.3456 19.1074 12.9935 19.0561L11.1233 18.7847L10.2873 17.0903L10.2871 17.0898C10.2083 16.9306 10.1045 16.8506 10.0005 16.8506C9.89652 16.8506 9.79251 16.9308 9.7137 17.0898V17.0903L8.87772 18.7847L7.00754 19.0561C6.65566 19.1074 6.57591 19.3529 6.83125 19.6017L8.18375 20.9202L7.86451 22.7817C7.86451 22.7822 7.86451 22.7822 7.86451 22.7822C7.82114 23.0366 7.91861 23.1863 8.09583 23.1863C8.16323 23.1863 8.24158 23.1646 8.32856 23.1192L10.0008 22.24L11.6727 23.1192Z" fill="white"/>
</svg>
