<svg width="20" height="20" viewBox="0 0 20 20" fill="none" xmlns="http://www.w3.org/2000/svg">
<path d="M10.1939 9.52052C12.818 9.52052 14.9541 7.38453 14.9541 4.76026C14.9541 2.1361 12.8181 0 10.1939 0C7.56959 0 5.43359 2.13599 5.43359 4.76026C5.43359 7.38442 7.56959 9.52052 10.1939 9.52052Z" fill="white"/>
<path d="M1.00094 16.5188V18.3022C1.00094 19.2352 1.75924 19.9934 2.69215 19.9934H17.5908C18.5824 19.9934 19.3873 19.1885 19.3873 18.197V16.522C19.3873 13.3783 16.8293 10.8203 13.6856 10.8203H6.7017C3.558 10.8203 1 13.3783 1 16.522L1.00094 16.5188Z" fill="white"/>
</svg>
