<svg width="20" height="20" viewBox="0 0 20 20" fill="none" xmlns="http://www.w3.org/2000/svg">
<path d="M5.38471 10.4617C5.38471 10.2577 5.46576 10.062 5.61002 9.91775C5.75428 9.77349 5.94994 9.69245 6.15396 9.69245H13.0772V4.69236C13.0772 3.15387 11.4526 2 10.0002 2H2.69236C1.97853 2.00076 1.29417 2.28467 0.789416 2.78942C0.284667 3.29417 0.000763584 3.97853 0 4.69236V16.231C0.000763584 16.9448 0.284667 17.6292 0.789416 18.134C1.29417 18.6387 1.97853 18.9226 2.69236 18.9234H10.3848C11.0986 18.9226 11.783 18.6387 12.2877 18.134C12.7925 17.6292 13.0764 16.9448 13.0772 16.231V11.2309H6.15396C5.94994 11.2309 5.75428 11.1499 5.61002 11.0056C5.46576 10.8614 5.38471 10.6657 5.38471 10.4617ZM19.7749 9.91793L15.9286 6.07171C15.7832 5.93354 15.5896 5.85764 15.389 5.86021C15.1884 5.86278 14.9967 5.94361 14.8549 6.08546C14.713 6.22731 14.6322 6.41896 14.6296 6.61955C14.6271 6.82013 14.703 7.01379 14.8411 7.15923L17.3739 9.69245H13.0772V11.2309H17.3739L14.8411 13.7642C14.7667 13.8349 14.7072 13.9198 14.6661 14.0139C14.625 14.108 14.6031 14.2093 14.6018 14.312C14.6005 14.4147 14.6197 14.5166 14.6584 14.6117C14.6971 14.7068 14.7544 14.7932 14.827 14.8658C14.8996 14.9384 14.986 14.9957 15.0811 15.0344C15.1763 15.0731 15.2781 15.0923 15.3808 15.091C15.4835 15.0897 15.5848 15.0679 15.6789 15.0267C15.773 14.9856 15.8579 14.9261 15.9286 14.8517L19.7749 11.0054C19.919 10.8612 20 10.6656 20 10.4617C20 10.2578 19.919 10.0622 19.7749 9.91793Z" fill="white"/>
</svg>
