<svg width="24" height="23" viewBox="0 0 24 23" fill="none" xmlns="http://www.w3.org/2000/svg">
<path d="M12.1846 0.178833C13.0743 0.175436 13.9685 0.276777 14.8477 0.48645C15.0132 0.526551 15.1602 0.621191 15.2656 0.755005C15.371 0.888903 15.4286 1.05436 15.4287 1.22473C15.4287 1.39523 15.3711 1.56144 15.2656 1.69543C15.1865 1.7958 15.084 1.8742 14.9678 1.92395L14.8477 1.96399C14.1821 2.12682 13.5436 2.3832 12.9502 2.72571C11.2882 3.6853 10.0758 5.26473 9.5791 7.11829C9.08242 8.97187 9.34217 10.9467 10.3018 12.6085C11.2614 14.2704 12.8418 15.483 14.6953 15.9796C16.5485 16.4758 18.5221 16.2159 20.1836 15.257L20.4033 15.1241C20.9104 14.8057 21.3763 14.4251 21.79 13.9913C21.9079 13.868 22.0646 13.7878 22.2334 13.7638C22.4021 13.7399 22.5743 13.773 22.7217 13.8585C22.8691 13.9441 22.9829 14.0771 23.0459 14.2355C23.1089 14.394 23.1169 14.5691 23.0684 14.7325C22.2946 17.3318 20.6151 19.5612 18.3447 21.0226L17.8828 21.3048C15.2825 22.8059 12.1921 23.2125 9.29199 22.4357C6.39183 21.6584 3.9184 19.7607 2.41699 17.1603C0.915884 14.5602 0.509164 11.4696 1.28613 8.56946C2.06334 5.66938 3.96027 3.19563 6.56055 1.69446C8.28233 0.700464 10.2223 0.178833 12.1807 0.178833H12.1846ZM11.7012 1.71301C10.1719 1.79413 8.66926 2.23218 7.32031 3.01086C5.06863 4.31089 3.42692 6.45181 2.75391 8.96301C2.08119 11.4741 2.43273 14.1491 3.73242 16.4005C5.03245 18.6522 7.17313 20.2949 9.68457 20.9679C12.1957 21.6406 14.8705 21.2881 17.1221 19.9884C18.47 19.2092 19.5994 18.1266 20.4336 16.8429C18.5357 17.7776 16.3566 17.9983 14.3008 17.4474C12.0584 16.8465 10.1461 15.3789 8.98535 13.3683C7.82437 11.3578 7.50945 8.96728 8.11035 6.72473C8.66137 4.66792 9.94169 2.88923 11.7012 1.71301ZM17.207 4.27258C17.351 4.28074 17.4902 4.32924 17.6074 4.41321C17.7246 4.49717 17.8152 4.61355 17.8691 4.74719C18.407 6.07925 19.4552 7.13985 20.7803 7.69348C20.9186 7.75129 21.037 7.84896 21.1201 7.97375C21.2031 8.09842 21.247 8.24489 21.2471 8.39465C21.2471 8.54458 21.2032 8.69173 21.1201 8.81653C21.037 8.9413 20.9186 9.039 20.7803 9.0968C19.4558 9.64999 18.4086 10.7099 17.8701 12.0411C17.8132 12.1813 17.7153 12.3013 17.5898 12.3859C17.4643 12.4704 17.3164 12.5158 17.165 12.5157C17.0138 12.5157 16.8657 12.4704 16.7402 12.3859C16.6462 12.3224 16.5679 12.2386 16.5107 12.1417L16.4609 12.0402C15.9234 10.7086 14.8758 9.64776 13.5518 9.09387C13.4138 9.03608 13.2959 8.93905 13.2129 8.81458C13.1299 8.68981 13.085 8.54257 13.085 8.3927C13.085 8.24294 13.1299 8.09648 13.2129 7.9718C13.2959 7.84714 13.4136 7.74935 13.5518 7.69153C14.8751 7.13739 15.9217 6.07728 16.459 4.74622C16.5093 4.62178 16.5922 4.51304 16.6982 4.43079C16.8045 4.34847 16.9312 4.29609 17.0645 4.27844L17.0684 4.27747C17.0758 4.27676 17.0834 4.27795 17.0908 4.27747L17.0898 4.26575L17.207 4.27258ZM17.165 6.63C16.6923 7.32094 16.0984 7.91971 15.4111 8.39758C16.0988 8.87574 16.6941 9.47391 17.167 10.1652C17.6399 9.4748 18.2345 8.87695 18.9219 8.39954C18.2334 7.92131 17.6382 7.32186 17.165 6.63Z" fill="white" stroke="white" stroke-width="0.2"/>
</svg>
