<svg width="34" height="40" viewBox="0 0 34 40" fill="none" xmlns="http://www.w3.org/2000/svg">
<path d="M25.3063 0C20.5194 0 16.6127 3.90241 16.6127 8.68668C16.6127 10.9901 17.529 13.2005 19.1595 14.8292C20.7895 16.4578 23.0016 17.3729 25.3063 17.3729C27.6115 17.3729 29.8232 16.4578 31.4536 14.8292C33.0836 13.2005 34 10.9901 34 8.68668C34 6.38282 33.0836 4.17247 31.4536 2.54378C29.8232 0.915077 27.6115 0 25.3063 0ZM14.9739 1.89046C8.14491 2.42885 2.78554 8.11989 2.78554 15.066V25.7035L0.111978 31.3246C0.0281957 31.5008 -0.00961232 31.6954 0.00207591 31.8902C0.0137641 32.0851 0.0745685 32.2737 0.178825 32.4387C0.283081 32.6037 0.427397 32.7396 0.598329 32.8338C0.769261 32.928 0.961249 32.9773 1.15641 32.9773H9.29597C9.50573 36.5052 12.4555 39.3116 16.0406 39.3116C19.6258 39.3116 22.5738 36.5052 22.7848 32.9773H30.9248C31.12 32.9773 31.3119 32.9278 31.4828 32.8336C31.6536 32.7394 31.7979 32.6035 31.9021 32.4385C32.0063 32.2736 32.0671 32.0849 32.0787 31.8901C32.0904 31.6954 32.0526 31.5008 31.9688 31.3246L29.2957 25.7035V20.0233C29.2957 19.8715 29.2658 19.7211 29.2077 19.5808C29.1496 19.4405 29.0644 19.313 28.9571 19.2057C28.8497 19.0983 28.7222 19.0131 28.5819 18.955C28.4416 18.8969 28.2912 18.867 28.1394 18.867C27.9875 18.867 27.8372 18.8969 27.6969 18.955C27.5566 19.0131 27.4291 19.0983 27.3217 19.2057C27.2144 19.313 27.1292 19.4405 27.0711 19.5808C27.013 19.7211 26.9831 19.8715 26.9831 20.0233V25.9643C26.9836 26.1362 27.0224 26.3058 27.0967 26.4608L29.0964 30.6651H22.7993L20.4867 30.6647L11.5976 30.6651L9.28504 30.6647L2.98831 30.6651L4.98758 26.4608C5.06188 26.3058 5.10069 26.1362 5.1012 25.9643V15.066C5.1012 9.30373 9.50223 4.64181 15.1592 4.19563C15.4649 4.17157 15.7485 4.02707 15.9476 3.79392C16.1468 3.56076 16.2451 3.25805 16.2211 2.95237C16.2092 2.80097 16.1676 2.65341 16.0986 2.5181C16.0297 2.38279 15.9347 2.26239 15.8192 2.16378C15.7037 2.06517 15.5699 1.99028 15.4255 1.94338C15.2811 1.89648 15.1253 1.8785 14.9739 1.89046ZM25.3063 2.30998C26.9997 2.30998 28.6223 2.98165 29.8192 4.17772C31.0162 5.37335 31.6878 6.99374 31.6878 8.6845C31.6878 10.3748 31.0162 11.9952 29.8192 13.1913C28.6223 14.3869 26.9997 15.0586 25.3063 15.0586C23.6134 15.0586 21.9908 14.3869 20.7939 13.1913C19.5969 11.9952 18.9253 10.3748 18.9253 8.6845C18.9253 5.15092 21.7679 2.30998 25.3063 2.30998ZM11.6138 32.9751H20.467C20.266 35.251 18.3873 36.9973 16.0406 36.9973C13.6939 36.9973 11.8148 35.251 11.6138 32.9751Z" fill="#004AEE"/>
</svg>
